<svg id="visual" viewBox="0 0 960 540" width="960" height="540" xmlns="http://www.w3.org/2000/svg" xmlns:xlink="http://www.w3.org/1999/xlink" version="1.1"><rect x="0" y="0" width="960" height="540" fill="#ffffff"></rect><defs><linearGradient id="grad1_0" x1="43.8%" y1="0%" x2="100%" y2="100%"><stop offset="14.444444444444446%" stop-color="#ffffff" stop-opacity="1"></stop><stop offset="85.55555555555554%" stop-color="#ffffff" stop-opacity="1"></stop></linearGradient></defs><defs><linearGradient id="grad2_0" x1="0%" y1="0%" x2="56.3%" y2="100%"><stop offset="14.444444444444446%" stop-color="#ffffff" stop-opacity="1"></stop><stop offset="85.55555555555554%" stop-color="#ffffff" stop-opacity="1"></stop></linearGradient></defs><g transform="translate(960, 0)"><path d="M0 270C-29.8 250.5 -59.6 231.1 -90.3 218C-121 205 -152.5 198.4 -181 181C-209.6 163.6 -235.1 135.3 -249.4 103.3C-263.8 71.3 -266.9 35.7 -270 0L0 0Z" fill="#10bf8a"></path></g><g transform="translate(0, 540)"><path d="M0 -270C34.1 -264.6 68.2 -259.2 102.6 -247.6C136.9 -236 171.5 -218.2 190.9 -190.9C210.4 -163.6 214.8 -126.8 225.4 -93.4C236.1 -60 253 -30 270 0L0 0Z" fill="#10bf8a"></path></g></svg>