<svg id="visual" viewBox="0 0 960 540" width="960" height="540" xmlns="http://www.w3.org/2000/svg" xmlns:xlink="http://www.w3.org/1999/xlink" version="1.1"><rect x="0" y="0" width="960" height="540" fill="#ffffff"></rect><defs><linearGradient id="grad1_0" x1="43.8%" y1="100%" x2="100%" y2="0%"><stop offset="14.444444444444446%" stop-color="#ffffff" stop-opacity="1"></stop><stop offset="85.55555555555554%" stop-color="#ffffff" stop-opacity="1"></stop></linearGradient></defs><defs><linearGradient id="grad2_0" x1="0%" y1="100%" x2="56.3%" y2="0%"><stop offset="14.444444444444446%" stop-color="#ffffff" stop-opacity="1"></stop><stop offset="85.55555555555554%" stop-color="#ffffff" stop-opacity="1"></stop></linearGradient></defs><g transform="translate(960, 540)"><path d="M-270 0C-250.5 -29.8 -231.1 -59.6 -218 -90.3C-205 -121 -198.4 -152.5 -181 -181C-163.6 -209.6 -135.3 -235.1 -103.3 -249.4C-71.3 -263.8 -35.7 -266.9 0 -270L0 0Z" fill="#e33e66"></path></g><g transform="translate(0, 0)"><path d="M270 0C264.6 34.1 259.2 68.2 247.6 102.6C236 136.9 218.2 171.5 190.9 190.9C163.6 210.4 126.8 214.8 93.4 225.4C60 236.1 30 253 0 270L0 0Z" fill="#e33e66"></path></g></svg>